<svg width="28" height="28" viewBox="0 0 28 28" fill="none" xmlns="http://www.w3.org/2000/svg">
<path fill-rule="evenodd" clip-rule="evenodd" d="M14 26.7647C21.0498 26.7647 26.7647 21.0498 26.7647 14C26.7647 6.95025 21.0498 1.23529 14 1.23529C6.95025 1.23529 1.23529 6.95025 1.23529 14C1.23529 21.0498 6.95025 26.7647 14 26.7647ZM14 28C21.732 28 28 21.732 28 14C28 6.26801 21.732 0 14 0C6.26801 0 0 6.26801 0 14C0 21.732 6.26801 28 14 28Z" fill="#485FC0"/>
<path d="M13.731 5.67287C13.8431 5.44238 14.1569 5.44238 14.269 5.67287L16.5556 10.3749C16.5995 10.4652 16.6818 10.528 16.7772 10.5439L21.7451 11.373C21.9886 11.4137 22.0856 11.7269 21.9114 11.91L18.3566 15.6452C18.2884 15.7169 18.257 15.8184 18.272 15.9185L19.0557 21.133C19.0942 21.3886 18.8403 21.5822 18.6205 21.4649L14.1369 19.0713C14.0509 19.0254 13.9491 19.0254 13.8631 19.0713L9.37951 21.4649C9.15973 21.5822 8.90583 21.3886 8.94425 21.133L9.72799 15.9185C9.74303 15.8184 9.71158 15.7169 9.64336 15.6452L6.08863 11.91C5.91438 11.7269 6.01136 11.4137 6.25488 11.373L11.2228 10.5439C11.3182 10.528 11.4005 10.4652 11.4444 10.3749L13.731 5.67287Z" fill="#485FC0"/>
</svg>
