<svg width="26" height="28" viewBox="0 0 26 28" fill="none" xmlns="http://www.w3.org/2000/svg">
<path d="M10.167 12.5833V21.0833M15.8337 12.5833V21.0833M1.66699 6.91667H24.3337M22.917 6.91667L21.6887 24.1178C21.6379 24.8327 21.318 25.5017 20.7936 25.9901C20.2691 26.4785 19.5791 26.75 18.8625 26.75H7.13816C6.42152 26.75 5.7315 26.4785 5.20708 25.9901C4.68266 25.5017 4.36279 24.8327 4.31191 24.1178L3.08366 6.91667H22.917ZM17.2503 6.91667V2.66667C17.2503 2.29094 17.1011 1.93061 16.8354 1.66493C16.5697 1.39926 16.2094 1.25 15.8337 1.25H10.167C9.79127 1.25 9.43093 1.39926 9.16526 1.66493C8.89958 1.93061 8.75032 2.29094 8.75032 2.66667V6.91667H17.2503Z" stroke="#485FC0" stroke-width="2" stroke-linecap="round" stroke-linejoin="round"/>
</svg>
