<svg width="174" height="63" viewBox="0 0 174 63" fill="none" xmlns="http://www.w3.org/2000/svg">
<path d="M22.9231 26.2735C23.5109 26.3878 23.947 26.5879 24.2315 26.8737C24.5348 27.1595 24.6865 27.4929 24.6865 27.874C24.6865 28.5028 24.5064 28.9601 24.1461 29.2459C23.8048 29.5317 23.255 29.646 22.4965 29.5889C20.79 29.4555 19.4532 29.3697 18.4862 29.3316C17.5382 29.2745 16.2867 29.2364 14.7319 29.2173C14.0303 32.7232 13.3856 36.2482 12.7978 39.7923C12.5893 41.0879 12.3712 42.5932 12.1437 44.308C11.9162 46.0038 11.7645 47.3757 11.6886 48.4237C11.6507 48.9763 11.4232 49.405 11.006 49.7098C10.5889 49.9956 10.0864 50.1386 9.49859 50.1386C8.87287 50.1386 8.38936 49.9861 8.04806 49.6813C7.70676 49.3764 7.53611 48.9763 7.53611 48.4809C7.53611 48.0236 7.60247 47.2709 7.7352 46.223C7.88689 45.1559 8.05754 44.0413 8.24715 42.879C8.45573 41.7167 8.6169 40.7068 8.73066 39.8494C8.93924 38.4013 9.17625 36.9627 9.44171 35.5337C9.70717 34.1047 9.97262 32.7518 10.2381 31.4752C10.295 31.1894 10.3613 30.8655 10.4372 30.5035C10.513 30.1224 10.5983 29.7032 10.6932 29.2459C8.83495 29.3031 7.37494 29.4555 6.31311 29.7032C5.25128 29.9509 4.49283 30.3034 4.03776 30.7607C3.60166 31.1989 3.3836 31.7705 3.3836 32.4755C3.3836 33.1234 3.57321 33.7426 3.95244 34.3333C4.02828 34.4667 4.06621 34.6096 4.06621 34.762C4.06621 35.124 3.84815 35.467 3.41204 35.7909C2.9949 36.0958 2.55879 36.2482 2.10372 36.2482C1.78138 36.2482 1.51592 36.153 1.30735 35.9624C0.928123 35.6385 0.615263 35.1812 0.368767 34.5905C0.122271 33.9808 -0.000976562 33.2949 -0.000976562 32.5327C-0.000976562 30.9131 0.520457 29.6174 1.56332 28.6457C2.62515 27.6549 4.22738 26.9308 6.36999 26.4735C8.53157 26.0162 11.2999 25.7876 14.675 25.7876C16.7607 25.7876 18.4198 25.8257 19.6523 25.9019C20.9038 25.9781 21.994 26.102 22.9231 26.2735Z" fill="#364294"/>
<path d="M21.0044 50.1386C19.8288 50.1386 18.8902 49.7098 18.1887 48.8524C17.4871 47.995 17.1363 46.8708 17.1363 45.4799C17.1363 43.9555 17.4871 42.517 18.1887 41.1641C18.8902 39.7923 19.8193 38.6967 20.976 37.8773C22.1516 37.039 23.3935 36.6198 24.7019 36.6198C25.119 36.6198 25.3939 36.7055 25.5267 36.877C25.6784 37.0294 25.8016 37.3152 25.8964 37.7344C26.2946 37.6582 26.7118 37.6201 27.1479 37.6201C28.077 37.6201 28.5415 37.9536 28.5415 38.6204C28.5415 39.0206 28.3993 39.9733 28.1149 41.4785C27.6788 43.6697 27.4607 45.1941 27.4607 46.0515C27.4607 46.3373 27.5271 46.5659 27.6598 46.7374C27.8115 46.9089 28.0011 46.9946 28.2286 46.9946C28.5889 46.9946 29.025 46.766 29.537 46.3087C30.0489 45.8324 30.741 45.0702 31.6132 44.0222C31.8408 43.7555 32.0967 43.6221 32.3812 43.6221C32.6277 43.6221 32.8173 43.7364 32.95 43.9651C33.1017 44.1937 33.1775 44.5081 33.1775 44.9082C33.1775 45.6704 32.9974 46.2611 32.6371 46.6803C31.8597 47.652 31.0349 48.4713 30.1627 49.1382C29.2905 49.8051 28.4467 50.1386 27.6314 50.1386C27.0057 50.1386 26.4273 49.929 25.8964 49.5098C25.3845 49.0715 24.9958 48.4809 24.7303 47.7378C23.7443 49.3383 22.5024 50.1386 21.0044 50.1386ZM22.0283 47.2519C22.4455 47.2519 22.8437 47.0042 23.2229 46.5088C23.6021 46.0134 23.8771 45.356 24.0477 44.5367L25.1 39.2778C24.3037 39.2969 23.5642 39.6017 22.8816 40.1924C22.2179 40.764 21.687 41.5262 21.2888 42.4789C20.8907 43.4316 20.6916 44.4414 20.6916 45.5084C20.6916 46.0991 20.8053 46.5374 21.0329 46.8232C21.2794 47.109 21.6112 47.2519 22.0283 47.2519Z" fill="#364294"/>
<path d="M32.8853 50.1386C32.1648 50.1386 31.6529 49.7575 31.3495 48.9953C31.0651 48.2332 30.9228 47.0137 30.9228 45.337C30.9228 42.8599 31.2736 40.5068 31.9752 38.2775C32.1458 37.7249 32.4208 37.3248 32.8 37.0771C33.1982 36.8103 33.7481 36.6769 34.4496 36.6769C34.8289 36.6769 35.0943 36.7246 35.246 36.8198C35.3977 36.9151 35.4735 37.0961 35.4735 37.3629C35.4735 37.6677 35.3313 38.3537 35.0469 39.4207C34.8573 40.1829 34.7056 40.8498 34.5918 41.4214C34.4781 41.993 34.3833 42.698 34.3074 43.5364C34.9331 41.8977 35.6347 40.5639 36.4121 39.535C37.1895 38.5061 37.948 37.7725 38.6875 37.3343C39.4459 36.8961 40.138 36.6769 40.7637 36.6769C41.9962 36.6769 42.6124 37.2962 42.6124 38.5347C42.6124 39.2778 42.4039 40.6211 41.9867 42.5646C41.6265 44.2223 41.4463 45.3179 41.4463 45.8514C41.4463 46.6136 41.7213 46.9946 42.2711 46.9946C42.6504 46.9946 43.0959 46.766 43.6079 46.3087C44.1388 45.8324 44.8404 45.0702 45.7126 44.0222C45.9401 43.7555 46.1961 43.6221 46.4805 43.6221C46.727 43.6221 46.9166 43.7364 47.0494 43.9651C47.2011 44.1937 47.2769 44.5081 47.2769 44.9082C47.2769 45.6704 47.0968 46.2611 46.7365 46.6803C45.9212 47.6901 45.0395 48.519 44.0914 49.1668C43.1623 49.8146 42.1005 50.1386 40.9059 50.1386C39.9389 50.1386 39.2089 49.8623 38.7159 49.3097C38.2229 48.7381 37.9764 47.9188 37.9764 46.8517C37.9764 46.3182 38.1091 45.3655 38.3746 43.9937C38.6211 42.7933 38.7444 41.9644 38.7444 41.5071C38.7444 41.2022 38.6401 41.0498 38.4315 41.0498C38.185 41.0498 37.8342 41.3737 37.3791 42.0216C36.943 42.6504 36.488 43.4887 36.0139 44.5367C35.5589 45.5847 35.1891 46.6898 34.9047 47.8521C34.6961 48.7476 34.4496 49.3573 34.1652 49.6813C33.8998 49.9861 33.4731 50.1386 32.8853 50.1386Z" fill="#364294"/>
<path d="M48.0191 34.7906C47.2227 34.7906 46.6254 34.6096 46.2272 34.2476C45.829 33.8665 45.6299 33.3425 45.6299 32.6756C45.6299 32.0087 45.8859 31.4562 46.3979 31.0179C46.9288 30.5606 47.5829 30.332 48.3604 30.332C49.0619 30.332 49.6308 30.5035 50.0669 30.8464C50.503 31.1894 50.721 31.6753 50.721 32.3041C50.721 33.0662 50.4745 33.6759 49.9815 34.1332C49.4885 34.5715 48.8344 34.7906 48.0191 34.7906ZM53.1386 43.6793C53.3851 43.6793 53.5747 43.8031 53.7074 44.0508C53.8591 44.2795 53.935 44.5748 53.935 44.9368C53.935 45.3751 53.8686 45.718 53.7359 45.9657C53.6031 46.2134 53.3946 46.4326 53.1101 46.6231C51.7829 47.4996 50.01 48.7095 47.7915 50.2529C47.052 54.2161 46.0945 57.3314 44.9189 59.5988C43.7433 61.8663 42.2454 63 40.4251 63C39.4391 63 38.6522 62.6951 38.0644 62.0854C37.4577 61.4947 37.1543 60.7135 37.1543 59.7417C37.1543 58.3889 37.6757 56.9408 38.7186 55.3974C39.7614 53.8731 41.7239 51.9868 44.606 49.7384L44.8051 48.2808C45.0706 46.4516 45.2792 44.651 45.4308 42.879C45.5446 41.8501 45.7247 40.3162 45.9712 38.2775C46.0471 37.7249 46.2557 37.3248 46.597 37.0771C46.9383 36.8103 47.4597 36.6769 48.1613 36.6769C48.7301 36.6769 49.0998 36.7627 49.2705 36.9342C49.4601 37.1056 49.5549 37.3438 49.5549 37.6487C49.5549 38.5252 49.242 40.945 48.6163 44.9082L48.3319 46.8803C49.8488 45.7371 51.233 44.7463 52.4844 43.9079C52.7309 43.7555 52.949 43.6793 53.1386 43.6793ZM40.7379 60.2276C41.2309 60.2276 41.7713 59.6655 42.3591 58.5413C42.9469 57.4172 43.4968 55.607 44.0088 53.111C42.5677 54.3495 41.5343 55.4641 40.9086 56.4549C40.2639 57.4648 39.9416 58.3508 39.9416 59.113C39.9416 59.8561 40.207 60.2276 40.7379 60.2276Z" fill="#364294"/>
<path d="M54.7929 50.1386C53.9396 50.1386 53.2381 49.7479 52.6882 48.9667C52.1573 48.1665 51.8918 47.1757 51.8918 45.9943C51.8918 44.5653 51.9866 43.2601 52.1762 42.0787C52.3658 40.8783 52.6787 39.6112 53.1148 38.2775C53.3044 37.7058 53.5699 37.2962 53.9112 37.0485C54.2525 36.8008 54.7929 36.6769 55.5324 36.6769C55.9495 36.6769 56.2339 36.7436 56.3856 36.877C56.5563 37.0104 56.6416 37.2104 56.6416 37.4772C56.6416 37.6296 56.5373 38.1441 56.3287 39.0206C56.1391 39.7256 55.9874 40.3639 55.8737 40.9355C55.4944 42.9362 55.3048 44.2699 55.3048 44.9368C55.3048 45.337 55.3522 45.6228 55.447 45.7943C55.5418 45.9467 55.6935 46.0229 55.9021 46.0229C56.1865 46.0229 56.5373 45.7371 56.9544 45.1655C57.3906 44.5939 57.8456 43.7269 58.3197 42.5646C58.8127 41.4023 59.2867 39.9733 59.7418 38.2775C59.8934 37.7058 60.121 37.2962 60.4244 37.0485C60.7467 36.8008 61.2207 36.6769 61.8464 36.6769C62.2826 36.6769 62.5859 36.7341 62.7566 36.8484C62.9272 36.9437 63.0126 37.1342 63.0126 37.42C63.0126 37.8964 62.7755 39.2016 62.3015 41.3356C61.7706 43.7745 61.5051 45.2798 61.5051 45.8514C61.5051 46.2134 61.581 46.4992 61.7327 46.7088C61.8844 46.8994 62.0835 46.9946 62.3299 46.9946C62.7092 46.9946 63.1548 46.766 63.6667 46.3087C64.1976 45.8324 64.8992 45.0702 65.7714 44.0222C65.999 43.7555 66.2549 43.6221 66.5393 43.6221C66.7858 43.6221 66.9754 43.7364 67.1082 43.9651C67.2599 44.1937 67.3357 44.5081 67.3357 44.9082C67.3357 45.6704 67.1556 46.2611 66.7953 46.6803C65.98 47.6901 65.0983 48.519 64.1502 49.1668C63.2211 49.8146 62.1593 50.1386 60.9647 50.1386C60.0546 50.1386 59.3815 49.7861 58.9454 49.0811C58.5282 48.3761 58.3197 47.3853 58.3197 46.1086C57.9973 47.4043 57.5138 48.4046 56.8691 49.1096C56.2244 49.7956 55.5324 50.1386 54.7929 50.1386Z" fill="#364294"/>
<path d="M67.0489 50.1386C66.3283 50.1386 65.8164 49.7575 65.513 48.9953C65.2286 48.2332 65.0864 47.0137 65.0864 45.337C65.0864 42.8599 65.4371 40.5068 66.1387 38.2775C66.3094 37.7249 66.5843 37.3248 66.9635 37.0771C67.3617 36.8103 67.9116 36.6769 68.6132 36.6769C68.9924 36.6769 69.2578 36.7246 69.4095 36.8198C69.5612 36.9151 69.6371 37.0961 69.6371 37.3629C69.6371 37.6677 69.4949 38.3537 69.2104 39.4207C69.0208 40.1829 68.8691 40.8498 68.7554 41.4214C68.6416 41.993 68.5468 42.698 68.4709 43.5364C69.0967 41.8977 69.7982 40.5639 70.5756 39.535C71.3531 38.5061 72.1115 37.7725 72.851 37.3343C73.6094 36.8961 74.3015 36.6769 74.9272 36.6769C76.1597 36.6769 76.776 37.2962 76.776 38.5347C76.776 39.2778 76.5674 40.6211 76.1502 42.5646C75.79 44.2223 75.6098 45.3179 75.6098 45.8514C75.6098 46.6136 75.8848 46.9946 76.4347 46.9946C76.8139 46.9946 77.2595 46.766 77.7714 46.3087C78.3023 45.8324 79.0039 45.0702 79.8761 44.0222C80.1036 43.7555 80.3596 43.6221 80.6441 43.6221C80.8905 43.6221 81.0802 43.7364 81.2129 43.9651C81.3646 44.1937 81.4404 44.5081 81.4404 44.9082C81.4404 45.6704 81.2603 46.2611 80.9 46.6803C80.0847 47.6901 79.203 48.519 78.2549 49.1668C77.3258 49.8146 76.264 50.1386 75.0694 50.1386C74.1024 50.1386 73.3724 49.8623 72.8794 49.3097C72.3864 48.7381 72.1399 47.9188 72.1399 46.8517C72.1399 46.3182 72.2727 45.3655 72.5381 43.9937C72.7846 42.7933 72.9079 41.9644 72.9079 41.5071C72.9079 41.2022 72.8036 41.0498 72.595 41.0498C72.3485 41.0498 71.9977 41.3737 71.5427 42.0216C71.1066 42.6504 70.6515 43.4887 70.1775 44.5367C69.7224 45.5847 69.3526 46.6898 69.0682 47.8521C68.8596 48.7476 68.6132 49.3573 68.3287 49.6813C68.0633 49.9861 67.6367 50.1386 67.0489 50.1386Z" fill="#364294"/>
<path d="M88.7811 37.6201C89.2551 37.6201 89.5869 37.6963 89.7765 37.8488C89.9851 37.9821 90.0894 38.2584 90.0894 38.6776C90.0894 38.9062 90.0799 39.0873 90.061 39.2206C89.9851 39.8113 89.7481 41.3356 89.3499 43.7936C89.0655 45.4513 88.8854 46.5469 88.8095 47.0804C88.089 51.9963 87.1125 55.8738 85.88 58.7128C84.6665 61.5709 83.0358 63 80.988 63C80.021 63 79.2341 62.6951 78.6273 62.0854C78.0206 61.4947 77.7172 60.7135 77.7172 59.7417C77.7172 58.3889 78.2481 56.9313 79.31 55.3689C80.3718 53.8255 82.3627 51.9201 85.2827 49.6527L85.4534 48.538C85.131 49.0525 84.7044 49.4526 84.1735 49.7384C83.6615 50.0052 83.1496 50.1386 82.6376 50.1386C81.462 50.1386 80.5235 49.7098 79.8219 48.8524C79.1203 47.995 78.7696 46.8708 78.7696 45.4799C78.7696 43.9555 79.1203 42.517 79.8219 41.1641C80.5235 39.7923 81.4526 38.6967 82.6092 37.8773C83.7848 37.039 85.0267 36.6198 86.3351 36.6198C86.7522 36.6198 87.0272 36.7055 87.1599 36.877C87.3116 37.0294 87.4348 37.3152 87.5296 37.7344C87.8899 37.6582 88.307 37.6201 88.7811 37.6201ZM83.6615 47.2519C84.0977 47.2519 84.5148 46.9851 84.913 46.4516C85.3112 45.9181 85.5956 45.1559 85.7662 44.1651L86.6764 39.2778C85.899 39.2969 85.1784 39.6017 84.5148 40.1924C83.8512 40.764 83.3202 41.5262 82.9221 42.4789C82.5239 43.4316 82.3248 44.4414 82.3248 45.5084C82.3248 46.0991 82.4386 46.5374 82.6661 46.8232C82.9126 47.109 83.2444 47.2519 83.6615 47.2519ZM81.3009 60.2276C81.7749 60.2276 82.3058 59.656 82.8936 58.5128C83.5004 57.3695 84.0787 55.5499 84.6286 53.0538C83.1686 54.3114 82.1162 55.4451 81.4715 56.4549C80.8268 57.4648 80.5045 58.3508 80.5045 59.113C80.5045 59.4369 80.5614 59.7036 80.6752 59.9132C80.8079 60.1228 81.0165 60.2276 81.3009 60.2276Z" fill="#364294"/>
<path d="M122.765 31.7039C122.765 33.3234 122.196 34.7239 121.059 35.9053C119.921 37.0675 118.262 37.9059 116.081 38.4204C117.257 38.7443 118.148 39.2778 118.755 40.0209C119.362 40.745 119.665 41.5833 119.665 42.536C119.665 44.0413 119.191 45.3465 118.243 46.4516C117.314 47.5567 115.949 48.4142 114.147 49.0239C112.346 49.6146 110.175 49.9099 107.634 49.9099C106.686 49.9099 105.928 49.8813 105.359 49.8242C105.34 50.3577 105.112 50.7578 104.676 51.0246C104.24 51.2913 103.681 51.4247 102.998 51.4247C102.316 51.4247 101.842 51.2723 101.576 50.9674C101.33 50.6625 101.225 50.2148 101.263 49.6241C101.434 46.9565 101.766 44.1651 102.259 41.2499C102.752 38.3156 103.377 35.4861 104.136 32.7613C104.269 32.285 104.534 31.9516 104.932 31.761C105.33 31.5705 105.852 31.4752 106.497 31.4752C107.653 31.4752 108.232 31.7991 108.232 32.447C108.232 32.7137 108.175 33.0186 108.061 33.3615C107.568 34.8478 107.075 36.8675 106.582 39.4207C106.089 41.9549 105.738 44.3747 105.53 46.6803C106.44 46.7565 107.179 46.7946 107.748 46.7946C110.403 46.7946 112.346 46.4135 113.579 45.6513C114.83 44.8701 115.456 43.8793 115.456 42.6789C115.456 41.8406 115.095 41.1356 114.375 40.5639C113.673 39.9923 112.488 39.6779 110.82 39.6208C110.44 39.6017 110.175 39.5064 110.023 39.335C109.872 39.1635 109.796 38.8872 109.796 38.5061C109.796 37.9536 109.91 37.5058 110.137 37.1628C110.365 36.8198 110.782 36.6388 111.389 36.6198C112.735 36.5817 113.948 36.3816 115.029 36.0196C116.129 35.6575 116.992 35.1526 117.617 34.5048C118.243 33.8379 118.556 33.0662 118.556 32.1897C118.556 31.0846 118.015 30.2176 116.935 29.5889C115.854 28.941 114.195 28.6171 111.957 28.6171C109.929 28.6171 107.966 28.8839 106.07 29.4174C104.174 29.9318 102.562 30.5892 101.235 31.3895C100.628 31.7515 100.116 31.9325 99.699 31.9325C99.3577 31.9325 99.0922 31.8182 98.9026 31.5895C98.7319 31.3418 98.6466 31.037 98.6466 30.6749C98.6466 30.1986 98.7414 29.7889 98.931 29.446C99.1396 29.103 99.6231 28.7124 100.382 28.2741C101.974 27.3596 103.842 26.645 105.985 26.1306C108.127 25.6161 110.317 25.3589 112.555 25.3589C115.987 25.3589 118.546 25.94 120.234 27.1023C121.922 28.2646 122.765 29.7985 122.765 31.7039Z" fill="#364294"/>
<path d="M125.314 50.1386C124.461 50.1386 123.759 49.7479 123.209 48.9667C122.679 48.1665 122.413 47.1757 122.413 45.9943C122.413 44.5653 122.508 43.2601 122.698 42.0787C122.887 40.8783 123.2 39.6112 123.636 38.2775C123.826 37.7058 124.091 37.2962 124.432 37.0485C124.774 36.8008 125.314 36.6769 126.054 36.6769C126.471 36.6769 126.755 36.7436 126.907 36.877C127.078 37.0104 127.163 37.2104 127.163 37.4772C127.163 37.6296 127.059 38.1441 126.85 39.0206C126.66 39.7256 126.509 40.3639 126.395 40.9355C126.016 42.9362 125.826 44.2699 125.826 44.9368C125.826 45.337 125.874 45.6228 125.968 45.7943C126.063 45.9467 126.215 46.0229 126.423 46.0229C126.708 46.0229 127.059 45.7371 127.476 45.1655C127.912 44.5939 128.367 43.7269 128.841 42.5646C129.334 41.4023 129.808 39.9733 130.263 38.2775C130.415 37.7058 130.642 37.2962 130.946 37.0485C131.268 36.8008 131.742 36.6769 132.368 36.6769C132.804 36.6769 133.107 36.7341 133.278 36.8484C133.449 36.9437 133.534 37.1342 133.534 37.42C133.534 37.8964 133.297 39.2016 132.823 41.3356C132.292 43.7745 132.026 45.2798 132.026 45.8514C132.026 46.2134 132.102 46.4992 132.254 46.7088C132.406 46.8994 132.605 46.9946 132.851 46.9946C133.23 46.9946 133.676 46.766 134.188 46.3087C134.719 45.8324 135.42 45.0702 136.293 44.0222C136.52 43.7555 136.776 43.6221 137.061 43.6221C137.307 43.6221 137.497 43.7364 137.629 43.9651C137.781 44.1937 137.857 44.5081 137.857 44.9082C137.857 45.6704 137.677 46.2611 137.317 46.6803C136.501 47.6901 135.62 48.519 134.672 49.1668C133.742 49.8146 132.681 50.1386 131.486 50.1386C130.576 50.1386 129.903 49.7861 129.467 49.0811C129.05 48.3761 128.841 47.3853 128.841 46.1086C128.519 47.4043 128.035 48.4046 127.39 49.1096C126.746 49.7956 126.054 50.1386 125.314 50.1386Z" fill="#364294"/>
<path d="M137.57 50.1386C136.85 50.1386 136.338 49.7575 136.034 48.9953C135.75 48.2332 135.608 47.0137 135.608 45.337C135.608 42.8599 135.958 40.5068 136.66 38.2775C136.831 37.7249 137.106 37.3248 137.485 37.0771C137.883 36.8103 138.433 36.6769 139.134 36.6769C139.514 36.6769 139.779 36.7246 139.931 36.8198C140.083 36.9151 140.158 37.0961 140.158 37.3629C140.158 37.6677 140.016 38.3537 139.732 39.4207C139.542 40.1829 139.39 40.8498 139.277 41.4214C139.163 41.993 139.068 42.698 138.992 43.5364C139.618 41.8977 140.32 40.5639 141.097 39.535C141.874 38.5061 142.633 37.7725 143.372 37.3343C144.131 36.8961 144.823 36.6769 145.449 36.6769C146.681 36.6769 147.297 37.2962 147.297 38.5347C147.297 39.2778 147.089 40.6211 146.672 42.5646C146.311 44.2223 146.131 45.3179 146.131 45.8514C146.131 46.6136 146.406 46.9946 146.956 46.9946C147.335 46.9946 147.781 46.766 148.293 46.3087C148.824 45.8324 149.525 45.0702 150.397 44.0222C150.625 43.7555 150.881 43.6221 151.165 43.6221C151.412 43.6221 151.601 43.7364 151.734 43.9651C151.886 44.1937 151.962 44.5081 151.962 44.9082C151.962 45.6704 151.782 46.2611 151.421 46.6803C150.606 47.6901 149.724 48.519 148.776 49.1668C147.847 49.8146 146.785 50.1386 145.591 50.1386C144.624 50.1386 143.894 49.8623 143.401 49.3097C142.908 48.7381 142.661 47.9188 142.661 46.8517C142.661 46.3182 142.794 45.3655 143.059 43.9937C143.306 42.7933 143.429 41.9644 143.429 41.5071C143.429 41.2022 143.325 41.0498 143.116 41.0498C142.87 41.0498 142.519 41.3737 142.064 42.0216C141.628 42.6504 141.173 43.4887 140.699 44.5367C140.244 45.5847 139.874 46.6898 139.59 47.8521C139.381 48.7476 139.134 49.3573 138.85 49.6813C138.585 49.9861 138.158 50.1386 137.57 50.1386Z" fill="#364294"/>
<path d="M164.223 43.6793C164.469 43.6793 164.659 43.8031 164.792 44.0508C164.943 44.2795 165.019 44.5748 165.019 44.9368C165.019 45.3751 164.953 45.718 164.82 45.9657C164.687 46.2134 164.479 46.4326 164.194 46.6231C162.564 47.7282 161.369 48.5475 160.611 49.0811L158.79 50.31C158.07 54.2542 157.122 57.3505 155.946 59.5988C154.79 61.8663 153.311 63 151.509 63C150.542 63 149.755 62.6951 149.149 62.0854C148.542 61.4947 148.238 60.7135 148.238 59.7417C148.238 58.3889 148.769 56.9313 149.831 55.3689C150.893 53.8255 152.884 51.9201 155.804 49.6527L155.975 48.538C155.652 49.0525 155.226 49.4526 154.695 49.7384C154.183 50.0052 153.671 50.1386 153.159 50.1386C151.983 50.1386 151.045 49.7098 150.343 48.8524C149.642 47.995 149.291 46.8708 149.291 45.4799C149.291 43.9555 149.642 42.517 150.343 41.1641C151.045 39.7923 151.974 38.6967 153.13 37.8773C154.306 37.039 155.548 36.6198 156.856 36.6198C157.274 36.6198 157.548 36.7055 157.681 36.877C157.833 37.0294 157.956 37.3152 158.051 37.7344C158.411 37.6582 158.828 37.6201 159.302 37.6201C159.776 37.6201 160.108 37.6963 160.298 37.8488C160.506 37.9821 160.611 38.2584 160.611 38.6776C160.611 38.9062 160.601 39.0873 160.582 39.2206C160.506 39.8113 160.269 41.307 159.871 43.7078C159.795 44.1651 159.71 44.6701 159.615 45.2226C159.539 45.7561 159.454 46.3278 159.359 46.9375C160.819 45.7943 162.222 44.7844 163.569 43.9079C163.815 43.7555 164.033 43.6793 164.223 43.6793ZM154.183 47.2519C154.619 47.2519 155.036 46.9851 155.434 46.4516C155.832 45.9181 156.117 45.1559 156.288 44.1651L157.198 39.2778C156.42 39.2969 155.7 39.6017 155.036 40.1924C154.372 40.764 153.842 41.5262 153.443 42.4789C153.045 43.4316 152.846 44.4414 152.846 45.5084C152.846 46.0991 152.96 46.5374 153.187 46.8232C153.434 47.109 153.766 47.2519 154.183 47.2519ZM151.822 60.2276C152.296 60.2276 152.827 59.656 153.415 58.5128C154.022 57.3695 154.6 55.5499 155.15 53.0538C153.69 54.3114 152.637 55.4451 151.993 56.4549C151.348 57.4648 151.026 58.3508 151.026 59.113C151.026 59.4369 151.083 59.7036 151.196 59.9132C151.329 60.1228 151.538 60.2276 151.822 60.2276Z" fill="#364294"/>
<path d="M166.264 50.1386C165.183 50.1386 164.301 49.7098 163.618 48.8524C162.955 47.995 162.623 46.8708 162.623 45.4799C162.623 43.9555 162.974 42.517 163.675 41.1641C164.377 39.7923 165.306 38.6967 166.463 37.8773C167.638 37.039 168.88 36.6198 170.188 36.6198C170.606 36.6198 170.881 36.7055 171.013 36.877C171.165 37.0294 171.288 37.3152 171.383 37.7344C171.743 37.6582 172.141 37.6201 172.578 37.6201C173.033 37.6201 173.383 37.7344 173.63 37.9631C173.876 38.1917 174 38.5156 174 38.9348C174 39.3731 173.905 40.1352 173.715 41.2213C173.507 42.3836 173.346 43.4982 173.232 44.5653C173.118 45.6132 173.061 46.7946 173.061 48.1093C173.061 48.8334 172.909 49.3573 172.606 49.6813C172.322 49.9861 171.848 50.1386 171.184 50.1386C170.539 50.1386 170.056 49.9861 169.733 49.6813C169.43 49.3573 169.278 48.8429 169.278 48.1379L169.307 47.6806C168.719 49.3192 167.705 50.1386 166.264 50.1386ZM167.373 47.2519C167.904 47.2519 168.387 46.8803 168.823 46.1372C169.259 45.3941 169.648 44.0699 169.989 42.1645L170.53 39.2778C169.752 39.2969 169.032 39.6017 168.368 40.1924C167.705 40.764 167.174 41.5262 166.775 42.4789C166.377 43.4316 166.178 44.4414 166.178 45.5084C166.178 46.0801 166.282 46.5183 166.491 46.8232C166.719 47.109 167.012 47.2519 167.373 47.2519Z" fill="#364294"/>
<path d="M28.3943 8.8252H32.7817C34.7759 8.8252 36.1885 9.20984 37.0195 9.97914C37.8504 10.736 38.2659 11.8279 38.2659 13.2548V19.2479C38.2659 20.7492 37.8587 21.9032 37.0444 22.7097C36.2467 23.5038 34.8839 23.9008 32.9562 23.9008H28.3943V8.8252ZM32.8315 22.84C33.8453 22.84 34.6014 22.6849 35.1 22.3747C35.6152 22.0521 35.9475 21.6302 36.0971 21.1091C36.2467 20.5755 36.3215 19.8807 36.3215 19.0245V13.4037C36.3215 12.5848 36.2301 11.9334 36.0473 11.4495C35.8644 10.9532 35.5154 10.5747 35.0003 10.3141C34.4851 10.0536 33.7372 9.9233 32.7567 9.9233H30.2888V22.84H32.8315Z" fill="#F05B4C"/>
<path d="M44.6346 24.0684C43.704 24.0684 42.9561 23.9319 42.3911 23.6589C41.8261 23.3859 41.4106 22.9454 41.1447 22.3374C40.8788 21.7295 40.7458 20.9043 40.7458 19.8621V17.1447C40.7458 16.09 40.8788 15.2649 41.1447 14.6693C41.4272 14.0613 41.851 13.6271 42.416 13.3665C42.9977 13.1059 43.7455 12.9757 44.6596 12.9757C45.6567 12.9757 46.4212 13.137 46.953 13.4596C47.5014 13.7698 47.8753 14.2413 48.0747 14.8741C48.2908 15.5069 48.3988 16.3568 48.3988 17.4239V18.3917H42.5656V20.2715C42.5656 21.3014 42.7235 22.021 43.0392 22.4305C43.355 22.84 43.8868 23.0447 44.6346 23.0447C45.2661 23.0447 45.7481 22.8958 46.0805 22.598C46.4295 22.3002 46.604 21.7605 46.604 20.9788V20.2343H48.3739V20.8299C48.3739 21.8722 48.083 22.6725 47.5014 23.2308C46.9197 23.7892 45.9641 24.0684 44.6346 24.0684ZM46.604 17.61V16.7166C46.604 16.0714 46.5541 15.5627 46.4544 15.1905C46.3713 14.8182 46.1885 14.5266 45.906 14.3157C45.6235 14.1048 45.1997 13.9993 44.6346 13.9993C44.1195 13.9993 43.7123 14.0862 43.4132 14.2599C43.114 14.4212 42.898 14.7128 42.765 15.1346C42.6321 15.5441 42.5656 16.1273 42.5656 16.8842V17.61H46.604Z" fill="#F05B4C"/>
<path d="M54.1455 24.0684C53.0154 24.0684 52.1014 23.7954 51.4034 23.2494C50.7221 22.7035 50.3315 21.959 50.2318 21.016L51.7524 20.6624C51.8521 21.4813 52.1097 22.0831 52.5252 22.4677C52.9407 22.8524 53.5223 23.0447 54.2702 23.0447C54.9017 23.0447 55.3836 22.9144 55.716 22.6539C56.065 22.3809 56.2395 22.0024 56.2395 21.5185C56.2395 20.8113 55.6578 20.0916 54.4945 19.3595L52.5252 18.0939C51.8438 17.6721 51.3453 17.2564 51.0295 16.8469C50.7137 16.4375 50.5559 15.9536 50.5559 15.3952C50.5559 14.6383 50.8633 14.0489 51.4782 13.6271C52.1097 13.1928 52.949 12.9757 53.996 12.9757C55.0596 12.9757 55.8739 13.23 56.4389 13.7387C57.0206 14.2475 57.3446 14.9361 57.4111 15.8047L56.1149 16.1211C56.0151 14.7066 55.3338 13.9993 54.0707 13.9993C53.5057 13.9993 53.057 14.1172 52.7246 14.3529C52.3922 14.5763 52.2261 14.8927 52.2261 15.3021C52.2261 15.6372 52.3091 15.9287 52.4753 16.1769C52.6415 16.4251 52.949 16.698 53.3977 16.9958L55.4418 18.3545C56.2229 18.8756 56.8128 19.3657 57.2117 19.8248C57.6272 20.2715 57.8349 20.8237 57.8349 21.4813C57.8349 22.3002 57.5025 22.9392 56.8378 23.3983C56.173 23.845 55.2756 24.0684 54.1455 24.0684Z" fill="#F05B4C"/>
<path d="M62.4038 24.0684C61.5396 24.0684 60.8416 23.8388 60.3098 23.3797C59.778 22.9206 59.5121 22.3499 59.5121 21.6674C59.5121 20.9602 59.6949 20.377 60.0605 19.9179C60.4428 19.4588 61.0244 19.0493 61.8055 18.6895C62.5866 18.3297 63.7582 17.8892 65.3204 17.3681V16.605C65.3204 15.9349 65.2622 15.4138 65.1459 15.0416C65.0462 14.6693 64.8634 14.4026 64.5975 14.2413C64.3482 14.08 63.9909 13.9993 63.5255 13.9993C62.1794 13.9993 61.5064 14.6135 61.5064 15.8419V16.2141L59.7115 16.1955C59.7281 15.0912 60.0439 14.2785 60.6588 13.7574C61.2737 13.2362 62.2625 12.9757 63.6253 12.9757C64.8883 12.9757 65.7857 13.261 66.3175 13.8318C66.8659 14.4026 67.1401 15.3021 67.1401 16.5305V21.7605C67.1401 22.1079 67.1484 22.505 67.1651 22.9516C67.1983 23.3983 67.2315 23.7147 67.2648 23.9008H65.6444L65.3702 22.4119C65.1542 22.8834 64.7803 23.2805 64.2485 23.6031C63.7333 23.9133 63.1184 24.0684 62.4038 24.0684ZM62.9771 22.9144C63.4757 22.9144 63.9244 22.7903 64.3233 22.5422C64.7387 22.2816 65.0711 21.9776 65.3204 21.6302V18.28C64.1903 18.7267 63.3677 19.0742 62.8525 19.3223C62.3539 19.5705 61.9717 19.8497 61.7058 20.1599C61.4565 20.4576 61.3319 20.8485 61.3319 21.3324C61.3319 21.8659 61.4814 22.263 61.7806 22.5236C62.0963 22.7841 62.4952 22.9144 62.9771 22.9144Z" fill="#F05B4C"/>
<path fill-rule="evenodd" clip-rule="evenodd" d="M83.6502 7.99491V8.30358C84.1872 7.51246 84.8129 6.88826 85.5364 6.39209C86.6969 5.59183 88.0871 5.13453 89.7344 4.84186C89.9984 4.79613 90.2509 4.97219 90.2965 5.23971C90.342 5.50494 90.1668 5.75874 89.9005 5.80447C88.3829 6.07198 87.1155 6.48584 86.0825 7.19693C85.2497 7.77083 84.558 8.54824 83.9983 9.61145C87.9506 10.0093 90.2896 9.62059 91.9893 8.37904C93.6731 7.14663 94.8107 5.01792 96.2965 1.95405C95.8597 1.9792 95.4046 2.00206 94.9427 2.02264C91.9484 2.16211 88.6673 2.31531 86.6195 4.1262C86.0962 4.59035 85.5842 5.14596 85.0859 5.79761C84.6013 6.42639 84.1234 7.15806 83.6502 7.99491ZM82.1803 5.49351C82.0142 5.26943 81.8276 5.09109 81.6228 4.94704C81.2201 4.6658 80.7241 4.50118 80.1348 4.37085C79.8731 4.31369 79.7047 4.05303 79.7616 3.79008C79.8185 3.52714 80.0779 3.35794 80.3395 3.4151C81.0426 3.57058 81.6479 3.77408 82.1712 4.13763C82.1325 4.01873 82.0893 3.89983 82.0438 3.78551C81.7958 3.17274 81.4317 2.61255 80.9289 2.16897C80.3486 1.6568 79.6046 1.56306 78.9243 1.47617L78.9083 1.47389L75.3383 1.25438L76.2621 3.17045C76.9083 4.33426 77.7843 4.98134 78.856 5.29458C79.8003 5.56896 80.9175 5.59868 82.1803 5.49351ZM82.5603 6.65732C81.054 6.80366 79.7047 6.78308 78.5261 6.43782C77.1472 6.0354 76.03 5.2077 75.2132 3.72606C75.2086 3.71692 75.2018 3.70548 75.1973 3.69634L73.8275 0.854252C73.6842 0.55701 73.8093 0.200321 74.1051 0.0585592C74.2007 0.0128297 74.3008 -0.0054621 74.3986 0.00139732L78.9834 0.28492C79.0085 0.287207 79.0335 0.289493 79.0585 0.294066L79.0699 0.296352C79.9254 0.403817 80.8629 0.522713 81.7116 1.27496C82.36 1.84887 82.8288 2.56225 83.1428 3.33965C83.4863 4.19022 83.6411 5.11624 83.6411 6.00568C83.6411 6.07198 83.6297 6.13601 83.6115 6.19545C83.8436 5.84562 84.0779 5.51637 84.3146 5.2077C84.8607 4.49203 85.4158 3.89069 85.9733 3.39681C88.2759 1.36185 91.739 1.19951 94.8972 1.05318C95.6276 1.01888 96.3398 0.986867 97.0565 0.925133C97.1407 0.918273 97.2272 0.931992 97.3068 0.970862C97.548 1.08747 97.6504 1.38014 97.5321 1.62251C95.796 5.22599 94.5673 7.69538 92.5536 9.16787C90.59 10.6038 87.9619 11.0336 83.5296 10.5466V14.4588C85.3817 11.8636 87.1929 11.8202 90.1508 11.7493C90.7834 11.7333 91.4751 11.7173 92.2624 11.6693C92.342 11.6647 92.4239 11.6784 92.5013 11.7173C92.7425 11.8339 92.8448 12.1266 92.7265 12.3689C91.5183 14.8795 90.7356 16.4366 89.4 17.3169C88.1212 18.1606 86.4375 18.3138 83.5273 17.9982V24.3981H82.5535V18.1354C78.5602 18.5721 76.137 18.204 74.3053 16.9236C72.4327 15.6089 71.2541 13.3841 69.675 10.1076C69.559 9.86524 69.6591 9.57258 69.9003 9.45597C69.9799 9.4171 70.0641 9.40338 70.1483 9.40795C70.7967 9.45825 71.4589 9.48569 72.1392 9.51313C75.0607 9.62974 78.3554 9.76007 80.4328 11.5961C81.4067 12.4558 82.0916 13.1715 82.558 13.9603L82.5603 6.65732ZM81.4931 17.2574C80.8287 16.3794 80.1279 15.7209 79.3816 15.2064C78.4647 14.5754 77.4658 14.1524 76.3713 13.8048C76.1142 13.7248 75.9732 13.4481 76.0551 13.1921C76.137 12.9337 76.41 12.7919 76.6649 12.872C77.8412 13.2447 78.922 13.7042 79.93 14.3993C80.8083 15.003 81.6228 15.7826 82.3896 16.8298C82.3327 15.9701 82.1712 15.3025 81.8617 14.7034C81.4613 13.9237 80.7992 13.2172 79.7912 12.3278C77.9686 10.7181 74.8605 10.5946 72.1005 10.4849C71.6932 10.4689 71.295 10.4529 70.9128 10.4323C72.2461 13.1578 73.3155 15.035 74.8673 16.1187C76.3486 17.1545 78.3304 17.5112 81.4931 17.2574ZM83.9278 15.6272C84.2918 15.3025 84.7014 15.0281 85.1382 14.7949C86.1439 14.2576 87.2998 13.9375 88.3692 13.75C88.6332 13.7042 88.8857 13.8803 88.9312 14.1478C88.9768 14.413 88.8016 14.6668 88.5353 14.7126C87.5547 14.8863 86.4989 15.1767 85.5933 15.6592C84.9335 16.0113 84.3555 16.4686 83.9528 17.0585C86.4284 17.3077 87.8573 17.1728 88.8744 16.5029C89.8687 15.8467 90.5581 14.6142 91.5001 12.6845C91.0382 12.7028 90.5968 12.7142 90.1781 12.7233C87.3408 12.7896 85.6821 12.8308 83.9278 15.6272Z" fill="#30AB3D"/>
<ellipse cx="83.5" cy="23.5" rx="5.5" ry="1.5" fill="#30AB3D"/>
</svg>
