<svg width="29" height="28" viewBox="0 0 29 28" fill="none" xmlns="http://www.w3.org/2000/svg">
<path fill-rule="evenodd" clip-rule="evenodd" d="M3.34835 20.4701C3.06579 21.8773 4.43111 23.2352 5.84599 22.9542L10.6252 22.0049C10.9658 21.9373 11.2716 21.7763 11.5099 21.5393L24.7653 8.3561C25.4904 7.63494 25.4259 6.40152 24.6212 5.6012L20.7964 1.79728C19.9917 0.996953 18.7516 0.932784 18.0264 1.65395L4.77099 14.8371C4.53267 15.0741 4.37083 15.3783 4.30283 15.7169L3.34835 20.4701ZM10.0528 20.0902L5.27358 21.0394L6.22805 16.2862L16.8576 5.71463L20.6824 9.51856L10.0528 20.0902ZM21.9953 8.21277L23.3083 6.90699L19.4835 3.10307L18.1706 4.40884L21.9953 8.21277Z" fill="#364294"/>
<path fill-rule="evenodd" clip-rule="evenodd" d="M1.62122 26.7266C1.62122 26.1576 2.08698 25.6963 2.66152 25.6963H27.3688C27.9433 25.6963 28.4091 26.1576 28.4091 26.7266C28.4091 27.2956 27.9433 27.7569 27.3688 27.7569H2.66152C2.08698 27.7569 1.62122 27.2956 1.62122 26.7266Z" fill="#364294"/>
</svg>
