<svg width="32" height="32" viewBox="0 0 32 32" fill="none" xmlns="http://www.w3.org/2000/svg">
<path fill-rule="evenodd" clip-rule="evenodd" d="M20.2746 22.1562L24.3946 26.2708C24.9146 26.7988 25.7546 26.7988 26.2746 26.2708C26.7973 25.7442 26.7973 24.8922 26.2746 24.3642L22.1679 20.2575C23.3279 18.7002 24.0173 16.7695 24.0173 14.6762C24.0173 9.51616 19.8346 5.3335 14.6759 5.3335C9.51592 5.3335 5.33325 9.51616 5.33325 14.6762C5.33325 19.8362 9.51592 24.0188 14.6759 24.0188C16.7759 24.0188 18.7146 23.3255 20.2746 22.1562ZM14.6746 21.3495C10.9906 21.3495 8.00259 18.3628 8.00259 14.6762C8.00259 10.9908 10.9893 8.00283 14.6759 8.00283C18.3613 8.00283 21.3479 10.9895 21.3479 14.6762C21.3479 18.3615 18.3613 21.3495 14.6773 21.3495H14.6746Z" fill="#364294"/>
</svg>
