<svg width="180" height="176" viewBox="0 0 180 176" fill="none" xmlns="http://www.w3.org/2000/svg">
<path d="M56.5849 78.9226L63.4609 74.9527L67.4308 81.8287C68.1397 83.0566 69.198 83.7553 70.5537 84.1186C71.9094 84.4819 73.1753 84.4059 74.4032 83.697C76.8589 82.2792 77.6892 79.1803 76.2714 76.7246L72.3015 69.8486L79.1776 65.8787C81.6333 64.4609 82.4636 61.362 81.0458 58.9063C79.628 56.4506 76.5292 55.6203 74.0734 57.0381L67.1974 61.008L63.2275 54.1319C61.8097 51.6762 58.7109 50.8459 56.2551 52.2637C53.7994 53.6815 52.9691 56.7803 54.3869 59.2361L58.3568 66.1121L51.4807 70.082C49.025 71.4998 48.1947 74.5986 49.6125 77.0543C50.3214 78.2822 51.3797 78.9809 52.7354 79.3442C54.0911 79.7075 55.357 79.6315 56.5849 78.9226Z" fill="#F05B4C"/>
<path d="M131.313 72.5821C129.895 70.1264 126.796 69.296 124.341 70.7138L117.465 74.6837L113.495 67.8077C112.077 65.352 108.978 64.5216 106.522 65.9395C104.067 67.3573 103.236 70.4561 104.654 72.9118L108.624 79.7879L101.748 83.7577C99.2923 85.1756 98.462 88.2744 99.8798 90.7301C100.589 91.958 101.647 92.6567 103.003 93.02C104.358 93.3833 105.624 93.3073 106.852 92.5984L113.728 88.6285L117.698 95.5045C118.407 96.7324 119.465 97.4311 120.821 97.7944C122.177 98.1577 123.443 98.0817 124.67 97.3728C127.126 95.9549 127.957 92.8561 126.539 90.4004L122.621 83.3307L129.497 79.3608C131.901 78.1367 132.731 75.0378 131.313 72.5821Z" fill="#F05B4C"/>
<path fill-rule="evenodd" clip-rule="evenodd" d="M50.2048 99.1971C50.6512 97.5312 52.7012 96.633 54.7836 97.191L112.097 112.548C114.179 113.106 115.505 114.909 115.059 116.575C114.612 118.241 112.562 119.139 110.48 118.581L53.1671 103.224C51.0847 102.666 49.7584 100.863 50.2048 99.1971Z" fill="#F05B4C"/>
<path fill-rule="evenodd" clip-rule="evenodd" d="M26.6726 12.0659C28.4582 5.40207 35.3077 1.44748 41.9715 3.23304L167.155 36.7758C173.819 38.5614 177.773 45.4109 175.988 52.0747L152.548 139.552C150.763 146.216 143.913 150.171 137.249 148.385L12.0659 114.842C5.4021 113.057 1.4475 106.207 3.23306 99.5434L26.6726 12.0659ZM40.355 9.26597C37.0231 8.37319 33.5983 10.3505 32.7055 13.6824L9.266 101.16C8.37322 104.492 10.3505 107.917 13.6824 108.809L138.866 142.352C142.198 143.245 145.622 141.268 146.515 137.936L169.955 50.4582C170.848 47.1263 168.87 43.7015 165.538 42.8088L40.355 9.26597Z" fill="#364294"/>
<path fill-rule="evenodd" clip-rule="evenodd" d="M165.105 68.5568L27.8561 31.781L29.4727 25.748L166.722 62.5239L165.105 68.5568Z" fill="#364294"/>
<path d="M51.5044 21.9524C50.8348 24.4513 48.2662 25.9343 45.7673 25.2647C43.2684 24.5951 41.7854 22.0266 42.455 19.5276C43.1246 17.0287 45.6931 15.5457 48.1921 16.2153C50.691 16.8849 52.174 19.4535 51.5044 21.9524Z" fill="#485FC0"/>
<path d="M65.0786 25.5891C64.409 28.0881 61.8404 29.571 59.3415 28.9014C56.8426 28.2319 55.3596 25.6633 56.0292 23.1643C56.6988 20.6654 59.2674 19.1825 61.7663 19.852C64.2652 20.5216 65.7482 23.0902 65.0786 25.5891Z" fill="#485FC0"/>
<path d="M78.6524 29.2268C77.9829 31.7257 75.4143 33.2087 72.9154 32.5391C70.4164 31.8696 68.9335 29.301 69.603 26.802C70.2726 24.3031 72.8412 22.8201 75.3401 23.4897C77.8391 24.1593 79.322 26.7279 78.6524 29.2268Z" fill="#485FC0"/>
<ellipse cx="96.6369" cy="162.469" rx="74.949" ry="13.2722" fill="#E0E9FF"/>
</svg>
