<svg width="38" height="38" viewBox="0 0 38 38" fill="none" xmlns="http://www.w3.org/2000/svg">
<rect width="38" height="38" fill="white"/>
<path d="M29.4047 11.1933L29.3869 11.1696C29.2948 11.0359 29.1106 11.0062 28.9798 11.0983L26.7218 12.6789C26.5881 12.771 26.5584 12.9552 26.6505 13.0859L26.6683 13.1097C26.7604 13.2434 26.9446 13.2731 27.0754 13.181L29.3334 11.6004C29.4641 11.5083 29.4968 11.3241 29.4047 11.1933ZM35.3587 20.1065L34.1346 25.8169C33.8316 27.2371 33.1453 28.3216 32.1708 29.0643C31.4963 29.5783 30.6912 29.92 29.785 30.0893L30.5872 31.8066C30.7595 32.178 30.5991 32.6207 30.2277 32.793C29.8563 32.9653 29.4136 32.8049 29.2413 32.4335L28.2014 30.2112H10.4285L9.38858 32.4335C9.21626 32.8049 8.77357 32.9653 8.40219 32.793C8.03081 32.6207 7.87037 32.178 8.04269 31.8066L8.80031 30.1844C7.64159 30.0834 6.69085 29.712 5.92432 29.0762C5.03002 28.3334 4.41798 27.2549 4.05254 25.8496L2.54621 20.1065H1.36966C0.995309 20.1065 0.653636 19.9521 0.404066 19.7055V19.7025L0.401095 19.7055C0.154496 19.4559 0 19.1142 0 18.7369V17.492C0 17.1147 0.154496 16.773 0.401095 16.5234C0.418921 16.5056 0.439718 16.4848 0.460516 16.47C0.701173 16.2531 1.01908 16.1223 1.36669 16.1223H1.54793C1.59844 15.5816 1.80641 15.0706 2.12729 14.6249C2.4541 14.1674 2.90571 13.7782 3.4197 13.5108C3.93667 13.2404 4.52197 13.0889 5.11321 13.1067C5.63315 13.1245 6.15012 13.2671 6.62846 13.5702C6.83643 13.2671 7.09492 12.9968 7.39202 12.7739C7.97435 12.3372 8.70227 12.0757 9.4896 12.0757C10.1432 12.0757 10.7553 12.254 11.2752 12.563C11.6823 12.8037 12.0328 13.1275 12.3062 13.5078C13.1351 13.5732 13.8838 13.9267 14.4453 14.4675C14.9059 14.9131 15.2386 15.4836 15.3842 16.1194H35.3647V8.75111C34.9309 6.62085 33.7009 6.04149 32.0579 6.27621C32.7977 7.56565 32.7026 8.8759 31.6538 10.2129C31.7875 10.4298 31.7756 10.6675 31.63 10.92L31.3032 11.2973C31.1725 11.431 31.0091 11.4429 30.7981 11.2736L25.777 6.20193C25.6403 6.03852 25.6671 5.89591 25.8275 5.77113C26.184 5.33438 26.2286 5.2601 26.8615 5.36706C28.2697 4.45197 29.6097 4.28856 30.8724 5.0135C34.0425 3.71217 36.7403 5.34626 37.1057 8.67386V16.2085C37.2929 16.2768 37.4593 16.3868 37.5959 16.5234C37.8425 16.77 37.997 17.1147 37.997 17.492V18.7369C37.997 19.1142 37.8425 19.4559 37.5959 19.7055C37.3493 19.9521 37.0047 20.1065 36.6303 20.1065H35.3587ZM26.5614 8.75111L26.5435 8.72734C26.4514 8.59364 26.2672 8.56393 26.1365 8.65604L23.8785 10.2366C23.7448 10.3287 23.7151 10.513 23.8072 10.6437L23.825 10.6675C23.9171 10.8011 24.1013 10.8309 24.2321 10.7388L26.4901 9.15815C26.6238 9.06604 26.6535 8.88184 26.5614 8.75111ZM25.263 7.44384L25.2452 7.42007C25.1531 7.28637 24.9689 7.25666 24.8382 7.34876L22.5801 8.92938C22.4464 9.02148 22.4167 9.20568 22.5088 9.33641L22.5267 9.36018C22.6188 9.49388 22.803 9.52359 22.9337 9.43149L25.1917 7.85088C25.3224 7.75877 25.3551 7.57457 25.263 7.44384ZM27.8568 10.0138L27.8389 9.99005C27.7468 9.85635 27.5626 9.82664 27.4319 9.91874L25.1739 11.4994C25.0402 11.5915 25.0105 11.7757 25.1026 11.9064L25.1204 11.9302C25.2125 12.0639 25.3967 12.0936 25.5274 12.0015L27.7884 10.4209C27.9162 10.3287 27.9489 10.1475 27.8568 10.0138ZM3.05723 16.1223H13.8274C13.7323 15.9025 13.5926 15.7064 13.4203 15.543C13.0668 15.2013 12.5765 14.9904 12.0328 14.9904C11.9496 14.9904 12.0388 14.9874 11.9823 14.9874L11.9318 14.9904C11.6525 15.0022 11.3762 14.8567 11.2396 14.5922C11.0791 14.2862 10.8296 14.0277 10.5235 13.8465C10.2264 13.6712 9.87287 13.5672 9.49554 13.5672C9.038 13.5672 8.61908 13.7158 8.28929 13.9624C7.9595 14.2119 7.7129 14.5596 7.60594 14.9577C7.57029 15.1092 7.48413 15.2518 7.3534 15.3588C7.0355 15.6173 6.56607 15.5697 6.30758 15.2518C5.94214 14.8032 5.50242 14.6071 5.07162 14.5922C4.7448 14.5804 4.41204 14.6695 4.11196 14.827C3.80891 14.9874 3.54152 15.2191 3.34245 15.4925C3.20281 15.6886 3.1018 15.9025 3.05723 16.1223ZM2.52541 17.6138C2.40657 17.6435 2.28772 17.6406 2.17482 17.6138H1.49148V18.6121H36.5085V17.6138H2.52541ZM4.08225 20.1065L5.49054 25.4753C5.77576 26.5686 6.22736 27.3916 6.87506 27.9264C7.5079 28.4523 8.36059 28.7197 9.4688 28.7197H28.4094C29.5562 28.7197 30.5337 28.4374 31.2646 27.8818C31.9598 27.353 32.45 26.5597 32.6758 25.508L33.8346 20.1065H4.08225Z" fill="#364294"/>
<path fill-rule="evenodd" clip-rule="evenodd" d="M19.6806 3.17798C19.3464 3.40133 19.2842 3.81406 19.543 4.10243C19.9294 4.53193 19.6677 5.28062 19.3666 6.14239L19.3661 6.14353C18.8681 7.57686 18.2915 9.24198 19.6512 11.0937C19.8805 11.4018 20.3522 11.4923 20.7094 11.2972C21.0664 11.0993 21.1713 10.6922 20.9452 10.3841C19.9591 9.04124 20.4276 7.68428 20.8338 6.51955L20.8341 6.51862C21.2533 5.31185 21.6166 4.26614 20.7519 3.29673C20.4931 3.00837 20.0148 2.95463 19.6806 3.17798ZM6.95288 3.17798C6.6187 3.40133 6.5564 3.81406 6.81522 4.10243C7.19859 4.53214 6.93976 5.28131 6.6383 6.14353C6.14032 7.57686 5.5638 9.24198 6.92336 11.0937C7.15267 11.4018 7.62442 11.4923 7.98155 11.2972C8.33867 11.0993 8.44345 10.6922 8.21742 10.3841C7.2313 9.04124 7.69976 7.68428 8.106 6.51955L8.10624 6.51862C8.52552 5.31185 8.8888 4.26614 8.0241 3.29673C7.76535 3.00837 7.28697 2.95463 6.95288 3.17798ZM13.3184 3.17798C12.9842 3.40133 12.922 3.81406 13.1808 4.10243C13.5641 4.53214 13.3053 5.28131 13.0039 6.14353L13.0029 6.14643C12.5051 7.57913 11.927 9.24326 13.2889 11.0937C13.5182 11.4018 13.99 11.4923 14.3471 11.2972C14.7042 11.0993 14.809 10.6922 14.5829 10.3841C13.5968 9.04124 14.0654 7.68428 14.4716 6.51955L14.4718 6.51882C14.8911 5.31199 15.2544 4.26621 14.3897 3.29673C14.1309 3.00837 13.6526 2.95463 13.3184 3.17798Z" fill="#364294"/>
</svg>
