<svg width="122" height="122" viewBox="0 0 122 122" fill="none" xmlns="http://www.w3.org/2000/svg">
<path d="M0 122L8.41371 91.5C2.94492 82.0345 0 71.5173 0 60.5792C0 27.3449 27.3449 0 60.7896 0C94.2343 0 122 27.3449 122 60.5792C122 93.8135 94.2345 122 60.7896 122C50.2723 122 40.1759 118.635 31.131 113.586L0 122Z" fill="#EDEDED"/>
<path d="M32.8137 102.649L34.7069 103.7C42.4896 108.538 51.5345 111.483 61 111.483C88.5551 111.483 111.483 88.5554 111.483 60.5795C111.483 32.6036 88.5551 10.5176 60.7896 10.5176C33.0241 10.5176 10.5173 32.814 10.5173 60.5795C10.5173 70.2554 13.2518 79.7209 18.3 87.714L19.5622 89.6072L14.7244 107.276L32.8137 102.649Z" fill="#55CD6C"/>
<path d="M44.5932 32.3935L40.5967 32.1831C39.3345 32.1831 38.0726 32.6039 37.2312 33.4453C35.3381 35.128 32.183 38.2831 31.3416 42.4902C29.8693 48.8006 32.183 56.3729 37.652 63.9453C43.1211 71.5176 53.6383 83.7176 72.1485 88.9762C78.0381 90.659 82.6657 89.6072 86.452 87.2935C89.3969 85.4004 91.2898 82.4557 91.9211 79.3004L92.552 76.3554C92.7624 75.5141 92.3416 74.4623 91.5003 74.0417L78.2485 67.9417C77.4071 67.5209 76.3553 67.7313 75.7244 68.5727L70.4657 75.3037C70.0449 75.7245 69.414 75.9346 68.783 75.7245C65.2071 74.4623 53.2175 69.4141 46.6967 56.7935C46.4863 56.1625 46.4863 55.5313 46.9071 55.1108L51.9553 49.4316C52.3761 48.8006 52.5863 47.9592 52.3761 47.328L46.2761 33.6557C46.0655 33.0245 45.4345 32.3935 44.5932 32.3935Z" fill="#FEFEFE"/>
</svg>
